<svg xmlns="http://www.w3.org/2000/svg" xmlns:xlink="http://www.w3.org/1999/xlink" width="500" zoomAndPan="magnify" viewBox="0 0 375 374.999991" height="500" preserveAspectRatio="xMidYMid meet" version="1.0"><path fill="rgb(88.238525%, 88.238525%, 90.979004%)" d="M 260.082031 54.433594 L 260.082031 66.53125 C 260.082031 79.90625 270.902344 90.726562 284.273438 90.726562 C 297.648438 90.726562 308.46875 79.90625 308.46875 66.53125 L 308.46875 54.433594 C 308.46875 41.0625 297.648438 30.242188 284.273438 30.242188 C 275.320312 30.242188 267.5 35.109375 263.316406 42.339844 L 260.082031 54.433594 " fill-opacity="1" fill-rule="nonzero"/><path fill="rgb(88.238525%, 88.238525%, 90.979004%)" d="M 78.628906 290.324219 C 48.625 290.324219 24.195312 265.917969 24.195312 235.886719 C 24.195312 205.859375 48.625 181.453125 78.628906 181.453125 C 108.660156 181.453125 133.066406 205.859375 133.066406 235.886719 C 133.066406 265.917969 108.660156 290.324219 78.628906 290.324219 " fill-opacity="1" fill-rule="nonzero"/><path fill="rgb(13.729858%, 15.689087%, 21.179199%)" d="M 362.902344 356.855469 C 362.902344 360.1875 360.1875 362.902344 356.855469 362.902344 L 211.695312 362.902344 C 208.363281 362.902344 205.644531 360.1875 205.644531 356.855469 L 205.644531 284.273438 C 205.644531 280.941406 208.363281 278.226562 211.695312 278.226562 L 356.855469 278.226562 C 360.1875 278.226562 362.902344 280.941406 362.902344 284.273438 Z M 12.097656 235.886719 L 12.097656 187.5 C 12.097656 177.480469 20.222656 169.355469 30.242188 169.355469 L 127.015625 169.355469 C 137.035156 169.355469 145.160156 177.480469 145.160156 187.5 L 145.160156 235.886719 C 145.160156 272.578125 115.320312 302.417969 78.628906 302.417969 C 41.9375 302.417969 12.097656 272.578125 12.097656 235.886719 Z M 96.773438 157.257812 L 60.484375 157.257812 L 60.484375 114.917969 C 60.484375 104.902344 68.613281 96.773438 78.628906 96.773438 C 88.648438 96.773438 96.773438 104.902344 96.773438 114.917969 Z M 78.628906 72.582031 C 101.972656 72.582031 120.96875 91.578125 120.96875 114.917969 L 120.96875 157.257812 L 108.871094 157.257812 L 108.871094 114.917969 C 108.871094 98.238281 95.308594 84.675781 78.628906 84.675781 C 61.949219 84.675781 48.386719 98.238281 48.386719 114.917969 L 48.386719 157.257812 L 36.289062 157.257812 L 36.289062 114.917969 C 36.289062 91.578125 55.285156 72.582031 78.628906 72.582031 Z M 217.742188 18.144531 C 217.742188 14.8125 220.457031 12.097656 223.789062 12.097656 L 344.757812 12.097656 C 348.089844 12.097656 350.804688 14.8125 350.804688 18.144531 L 350.804688 102.824219 C 350.804688 106.152344 348.089844 108.871094 344.757812 108.871094 L 223.789062 108.871094 C 220.457031 108.871094 217.742188 106.152344 217.742188 102.824219 Z M 217.742188 151.210938 C 217.742188 147.878906 220.457031 145.160156 223.789062 145.160156 L 344.757812 145.160156 C 348.089844 145.160156 350.804688 147.878906 350.804688 151.210938 L 350.804688 235.886719 C 350.804688 239.21875 348.089844 241.933594 344.757812 241.933594 L 338.355469 241.933594 C 336.039062 221.074219 321.886719 203.800781 302.773438 196.855469 C 306.269531 192.652344 308.46875 187.335938 308.46875 181.453125 C 308.46875 168.101562 297.625 157.257812 284.273438 157.257812 C 270.925781 157.257812 260.082031 168.101562 260.082031 181.453125 C 260.082031 187.335938 262.277344 192.652344 265.773438 196.855469 C 246.660156 203.800781 232.507812 221.074219 230.191406 241.933594 L 223.789062 241.933594 C 220.457031 241.933594 217.742188 239.21875 217.742188 235.886719 Z M 284.273438 205.644531 C 305.5625 205.644531 323.164062 221.453125 326.117188 241.933594 L 242.429688 241.933594 C 245.386719 221.453125 262.988281 205.644531 284.273438 205.644531 Z M 272.175781 181.453125 C 272.175781 174.789062 277.613281 169.355469 284.273438 169.355469 C 290.9375 169.355469 296.371094 174.789062 296.371094 181.453125 C 296.371094 188.113281 290.9375 193.546875 284.273438 193.546875 C 277.613281 193.546875 272.175781 188.113281 272.175781 181.453125 Z M 356.855469 266.128906 L 211.695312 266.128906 C 201.675781 266.128906 193.546875 274.257812 193.546875 284.273438 L 193.546875 338.710938 L 84.675781 338.710938 L 84.675781 314.207031 C 125.21875 311.089844 157.257812 277.210938 157.257812 235.886719 L 157.257812 193.546875 L 205.644531 193.546875 L 205.644531 235.886719 C 205.644531 245.90625 213.773438 254.03125 223.789062 254.03125 L 344.757812 254.03125 C 354.777344 254.03125 362.902344 245.90625 362.902344 235.886719 L 362.902344 151.210938 C 362.902344 141.191406 354.777344 133.066406 344.757812 133.066406 L 223.789062 133.066406 C 213.773438 133.066406 205.644531 141.191406 205.644531 151.210938 L 205.644531 181.453125 L 156.644531 181.453125 C 154.234375 169.613281 144.902344 160.28125 133.066406 157.871094 L 133.066406 114.917969 C 133.066406 86.945312 111.847656 63.863281 84.675781 60.839844 L 84.675781 36.289062 L 205.644531 36.289062 L 205.644531 102.824219 C 205.644531 112.839844 213.773438 120.96875 223.789062 120.96875 L 344.757812 120.96875 C 354.777344 120.96875 362.902344 112.839844 362.902344 102.824219 L 362.902344 18.144531 C 362.902344 8.128906 354.777344 0 344.757812 0 L 223.789062 0 C 213.773438 0 205.644531 8.128906 205.644531 18.144531 L 205.644531 24.195312 L 72.582031 24.195312 L 72.582031 60.839844 C 45.410156 63.863281 24.195312 86.945312 24.195312 114.917969 L 24.195312 157.871094 C 10.394531 160.683594 0 172.898438 0 187.5 L 0 235.886719 C 0 277.210938 32.0625 311.089844 72.582031 314.207031 L 72.582031 350.804688 L 193.546875 350.804688 L 193.546875 356.855469 C 193.546875 366.871094 201.675781 375 211.695312 375 L 356.855469 375 C 366.871094 375 375 366.871094 375 356.855469 L 375 284.273438 C 375 274.257812 366.871094 266.128906 356.855469 266.128906 " fill-opacity="1" fill-rule="nonzero"/><path fill="rgb(13.729858%, 15.689087%, 21.179199%)" d="M 284.273438 314.515625 C 280.941406 314.515625 278.226562 317.234375 278.226562 320.566406 C 278.226562 323.894531 280.941406 326.613281 284.273438 326.613281 C 287.605469 326.613281 290.324219 323.894531 290.324219 320.566406 C 290.324219 317.234375 287.605469 314.515625 284.273438 314.515625 " fill-opacity="1" fill-rule="nonzero"/><path fill="rgb(13.729858%, 15.689087%, 21.179199%)" d="M 336.582031 325.40625 C 328.3125 329.992188 319.476562 333.417969 310.335938 335.636719 C 312.910156 331.195312 314.515625 326.09375 314.515625 320.566406 C 314.515625 315.035156 312.910156 309.933594 310.335938 305.492188 C 319.476562 307.734375 328.3125 311.136719 336.582031 315.722656 C 337.929688 316.972656 338.710938 318.722656 338.710938 320.566406 C 338.710938 322.40625 337.929688 324.15625 336.582031 325.40625 Z M 229.839844 320.566406 C 229.839844 318.722656 230.617188 316.972656 231.964844 315.722656 C 240.234375 311.136719 249.070312 307.734375 258.214844 305.492188 C 255.640625 309.933594 254.03125 315.035156 254.03125 320.566406 C 254.03125 326.09375 255.640625 331.195312 258.214844 335.636719 C 249.070312 333.417969 240.234375 329.992188 231.964844 325.40625 C 230.617188 324.15625 229.839844 322.40625 229.839844 320.566406 Z M 284.273438 338.710938 C 274.257812 338.710938 266.128906 330.582031 266.128906 320.566406 C 266.128906 310.546875 274.257812 302.417969 284.273438 302.417969 C 294.292969 302.417969 302.417969 310.546875 302.417969 320.566406 C 302.417969 330.582031 294.292969 338.710938 284.273438 338.710938 Z M 343.007812 305.46875 C 325.40625 295.542969 305.417969 290.324219 285.21875 290.324219 L 283.328125 290.324219 C 263.128906 290.324219 243.140625 295.542969 225.539062 305.46875 L 224.734375 306.011719 C 220.292969 309.578125 217.742188 314.871094 217.742188 320.566406 C 217.742188 326.257812 220.292969 331.550781 224.734375 335.117188 L 225.539062 335.660156 C 243.140625 345.585938 263.128906 350.804688 283.328125 350.804688 L 285.21875 350.804688 C 305.417969 350.804688 325.40625 345.585938 343.007812 335.660156 L 343.8125 335.117188 C 348.253906 331.550781 350.804688 326.257812 350.804688 320.566406 C 350.804688 314.871094 348.253906 309.578125 343.8125 306.011719 L 343.007812 305.46875 " fill-opacity="1" fill-rule="nonzero"/><path fill="rgb(13.729858%, 15.689087%, 21.179199%)" d="M 284.273438 36.289062 C 294.292969 36.289062 302.417969 44.417969 302.417969 54.433594 L 314.515625 54.433594 C 314.515625 37.753906 300.953125 24.195312 284.273438 24.195312 C 273.5 24.195312 263.484375 29.980469 258.074219 39.316406 L 268.5625 45.363281 C 271.800781 39.761719 277.824219 36.289062 284.273438 36.289062 " fill-opacity="1" fill-rule="nonzero"/><path fill="rgb(13.729858%, 15.689087%, 21.179199%)" d="M 284.273438 96.773438 C 300.953125 96.773438 314.515625 83.210938 314.515625 66.53125 L 302.417969 66.53125 C 302.417969 76.550781 294.292969 84.675781 284.273438 84.675781 C 274.257812 84.675781 266.128906 76.550781 266.128906 66.53125 L 266.128906 54.433594 L 254.03125 54.433594 L 254.03125 66.53125 C 254.03125 83.210938 267.59375 96.773438 284.273438 96.773438 " fill-opacity="1" fill-rule="nonzero"/><path fill="rgb(13.729858%, 15.689087%, 21.179199%)" d="M 278.226562 54.433594 L 278.226562 66.53125 C 278.226562 69.863281 280.941406 72.582031 284.273438 72.582031 C 287.605469 72.582031 290.324219 69.863281 290.324219 66.53125 L 290.324219 54.433594 C 290.324219 51.105469 287.605469 48.386719 284.273438 48.386719 C 280.941406 48.386719 278.226562 51.105469 278.226562 54.433594 " fill-opacity="1" fill-rule="nonzero"/><path fill="rgb(13.729858%, 15.689087%, 21.179199%)" d="M 66.53125 229.839844 C 66.53125 223.175781 71.964844 217.742188 78.628906 217.742188 C 85.292969 217.742188 90.726562 223.175781 90.726562 229.839844 C 90.726562 236.5 85.292969 241.933594 78.628906 241.933594 C 71.964844 241.933594 66.53125 236.5 66.53125 229.839844 Z M 84.675781 266.128906 L 84.675781 253.183594 C 95.074219 250.464844 102.824219 241.085938 102.824219 229.839844 C 102.824219 216.488281 91.976562 205.644531 78.628906 205.644531 C 65.28125 205.644531 54.433594 216.488281 54.433594 229.839844 C 54.433594 241.085938 62.183594 250.464844 72.582031 253.183594 L 72.582031 266.128906 L 84.675781 266.128906 " fill-opacity="1" fill-rule="nonzero"/></svg>